<svg id="Шрифт_в_кривые" data-name="Шрифт в кривые" xmlns="http://www.w3.org/2000/svg" width="2526" height="657" viewBox="0 0 2526 657">
  <defs>
    <style>
      .cls-1, .cls-2 {
        fill: #516791;
      }

      .cls-1 {
        fill-rule: evenodd;
      }

      .cls-2 {
        font-size: 300px;
        text-anchor: middle;
        font-family: "Helvetica Neue";
        font-weight: 500;
      }
    </style>
  </defs>
  <path id="wordy" class="cls-1" d="M1047.65,220.944l-41,120.541L963.6,220.944H886.929l-43.05,120.541-41-120.541H710.627l90.2,218.532h80.361l44.28-122.591L969.34,439.476h80.36l90.2-218.532h-92.25Zm231.24-5.74c-67.65,0-143.09,30.751-143.09,115.211s75.44,115.211,143.09,115.211c67.24,0,142.68-30.75,142.68-115.211S1346.13,215.2,1278.89,215.2Zm0,172.2c-41.82,0-57.4-27.47-57.4-56.991s15.58-56.99,57.4-56.99c41.41,0,56.99,27.47,56.99,56.99S1320.3,387.406,1278.89,387.406ZM1615.5,215.2c-47.56,0-71.75,25.011-79.95,39.361V220.944h-89.38V439.476h89.38v-93.07c0-34.031,12.71-61.911,58.63-61.911,19.68,0,34.44,5.33,45.51,9.84h7.38V218.894C1639.69,216.434,1629.44,215.2,1615.5,215.2Zm237.39-62.73v94.711c-18.45-20.911-44.7-31.981-74.22-31.981-67.65,0-119.31,41-119.31,115.211s51.66,115.211,119.31,115.211c29.52,0,55.77-11.07,74.22-32.39v26.24h89.38v-287h-89.38Zm-50.85,234.932c-39.36,0-57.4-27.47-57.4-56.991s18.04-56.99,57.4-56.99c42.24,0,58.64,25.01,58.64,56.99S1844.28,387.406,1802.04,387.406Zm348.51-166.462-50.43,129.562-53.3-129.562h-92.25l104.55,215.662-38.54,71.341h90.61l131.2-287h-91.84Z"/>
  <path id="Фигура_1_копия" data-name="Фигура 1 копия" class="cls-1" d="M297.564,174.436H206.436L270.871,110H362ZM426.436,485.564h91.128L453.129,550H362ZM324.258,238.871L142,421.129V238.871H324.258Zm75.484,182.258L270.871,550,142,421.129H399.742Zm37.742-128.871-64.435,64.435H281.92l64.436-64.435h91.128ZM582,238.871H324.258L453.129,110Zm0,0V421.129H399.742Z"/>
  <text id="β" class="cls-2" x="2358.645" y="329.346"><tspan x="2358.645">β</tspan></text>
</svg>
